<svg width="40" height="40" viewBox="0 0 40 40" fill="none" xmlns="http://www.w3.org/2000/svg">
<rect width="40" height="40" rx="20" fill="#75A1A7"/>
<path d="M28.3583 26.296H21.3823L24.9663 22.968C27.0783 21.016 28.1343 18.904 28.1343 16.632C28.1343 14.52 27.4303 12.792 26.0543 11.384C24.5823 9.912 22.5663 9.176 20.0383 9.176C17.5423 9.176 15.5263 9.944 13.9903 11.48C12.4223 13.048 11.6223 15.032 11.6223 17.4H17.3503C17.3823 16.248 17.6383 15.384 18.1183 14.776C18.5663 14.2 19.1743 13.912 19.9743 13.912C20.6143 13.912 21.1583 14.136 21.5423 14.552C21.9583 15.032 22.1823 15.704 22.1823 16.6C22.1823 17.624 21.7983 18.744 21.0303 19.928C20.0383 21.528 18.5663 23.32 16.6463 25.336L11.2383 31H28.3583V26.296Z" fill="white"/>
</svg>
