<svg width="40" height="40" viewBox="0 0 40 40" fill="none" xmlns="http://www.w3.org/2000/svg">
<rect width="40" height="40" rx="20" fill="#75A1A7"/>
<path d="M11.3023 23.704C11.4943 26.008 12.3903 27.864 13.9583 29.272C15.5263 30.744 17.5743 31.48 20.0703 31.48C22.7903 31.48 24.9023 30.744 26.4383 29.208C27.6863 27.96 28.3263 26.392 28.3263 24.536C28.3263 23.32 28.0063 22.296 27.4303 21.4C26.7903 20.504 25.9263 19.832 24.9023 19.448C25.5743 19.128 26.1183 18.584 26.5343 17.816C26.9503 17.048 27.1743 16.184 27.1743 15.192C27.1743 13.592 26.5983 12.216 25.4463 11.064C24.1663 9.816 22.3743 9.176 20.1343 9.176C17.7023 9.176 15.8143 9.88 14.5023 11.256C13.2223 12.536 12.5182 14.168 12.4223 16.152H17.5743C17.5743 15.352 17.7983 14.712 18.3103 14.264C18.6623 13.912 19.1743 13.72 19.8463 13.72C20.4863 13.72 21.0303 13.912 21.4143 14.296C21.7983 14.68 21.9903 15.192 21.9903 15.832C21.9903 16.44 21.7343 16.952 21.2863 17.336C20.7103 17.848 19.9423 18.008 19.0143 17.88V21.624C19.2703 21.56 19.5583 21.496 19.9423 21.496C20.8063 21.496 21.4783 21.72 21.9903 22.104C22.5343 22.584 22.8223 23.224 22.8223 23.992C22.8223 24.696 22.5983 25.272 22.1823 25.752C21.6063 26.392 20.8703 26.68 20.0063 26.68C19.0463 26.68 18.3423 26.424 17.8303 25.848C17.2863 25.336 16.9983 24.6 16.9663 23.704H11.3023Z" fill="white"/>
</svg>
