<?xml version="1.0" standalone="no"?>
<!DOCTYPE svg PUBLIC "-//W3C//DTD SVG 20010904//EN"
 "http://www.w3.org/TR/2001/REC-SVG-20010904/DTD/svg10.dtd">
<svg version="1.0" xmlns="http://www.w3.org/2000/svg"
 width="400.000000pt" height="400.000000pt" viewBox="0 0 400.000000 400.000000"
 preserveAspectRatio="xMidYMid meet">
<metadata>
Created by potrace 1.14, written by Peter Selinger 2001-2017
</metadata>
<g transform="translate(0.000000,400.000000) scale(0.100000,-0.100000)"
fill="#000000" stroke="none">
<path d="M1815 3739 c-427 -45 -838 -256 -1122 -579 -640 -725 -574 -1832 147
-2467 800 -705 2024 -545 2616 342 482 723 355 1699 -296 2272 -369 326 -858
483 -1345 432z m483 -268 c403 -86 731 -309 954 -646 106 -160 180 -340 224
-545 26 -120 26 -428 1 -555 -84 -412 -309 -750 -652 -977 -160 -106 -340
-180 -545 -224 -120 -26 -428 -26 -555 -1 -552 112 -987 495 -1153 1017 -56
177 -66 247 -67 455 0 209 12 292 67 465 163 516 606 909 1143 1014 121 23
137 24 320 21 122 -3 196 -9 263 -24z"/>
<path d="M2438 2813 c7 -3 16 -2 19 1 4 3 -2 6 -13 5 -11 0 -14 -3 -6 -6z"/>
<path d="M1510 2806 c0 -2 7 -7 16 -10 8 -3 12 -2 9 4 -6 10 -25 14 -25 6z"/>
<path d="M2410 2372 c0 -12 19 -26 26 -19 2 2 -2 10 -11 17 -9 8 -15 8 -15 2z"/>
<path d="M671 2322 c-41 -154 -49 -438 -18 -594 122 -610 617 -1054 1234
-1107 351 -31 698 77 980 304 241 194 419 490 478 798 19 98 31 305 21 370
l-7 47 -22 -20 c-57 -54 -152 -104 -250 -132 -91 -26 -116 -30 -232 -29 -153
1 -211 -14 -345 -90 -110 -62 -153 -73 -280 -72 -174 1 -346 59 -435 147 -91
89 -188 112 -320 73 -131 -38 -308 -13 -463 64 -69 35 -96 56 -158 125 -42 46
-98 99 -125 119 l-48 35 -10 -38z"/>
</g>
</svg>
