<svg width="291" height="293" viewBox="0 0 291 293" fill="none" xmlns="http://www.w3.org/2000/svg">
<g clip-path="url(#clip0_3_48)">
<path fill-rule="evenodd" clip-rule="evenodd" d="M178.846 177.125C202.785 164.308 225.918 146.755 239.804 123.181C244.858 114.604 247.76 105.454 250.813 96.1107C251.028 95.4558 250.682 94.7633 250.041 94.5665C249.398 94.3725 248.702 94.7478 248.488 95.4072C245.493 104.57 242.667 113.551 237.711 121.963C224.022 145.202 201.16 162.447 177.554 175.049L177.346 174.703C175.101 170.94 169.665 168.616 162.937 167.676C153.295 166.326 141.018 167.686 132.663 170.746C128.909 172.121 125.932 173.862 124.229 175.811C122.9 177.33 122.29 178.994 122.495 180.741C122.936 184.463 126.46 186.746 131.744 187.636C142.794 189.5 161.623 185.683 169.38 181.939C171.802 180.769 174.227 179.554 176.645 178.288C177.058 178.939 177.459 179.577 177.822 180.217C178.849 182.043 179.561 183.912 179.251 186.365C178.762 190.188 176.694 193.759 173.947 196.983C169.657 202.013 163.699 206.186 159.051 209.081C133.169 225.2 107.755 224.595 85.8807 218.649C63.7912 212.64 45.279 201.204 33.4369 195.81C32.8283 195.532 32.0967 195.818 31.8001 196.446C31.5035 197.073 31.7585 197.808 32.3689 198.084C44.287 203.513 62.9318 215.004 85.1696 221.05C107.623 227.158 133.71 227.733 160.28 211.189C165.121 208.174 171.31 203.81 175.777 198.572C178.867 194.944 181.132 190.898 181.682 186.596C182.173 182.735 180.668 180.042 178.846 177.125ZM175.338 176.215L175.237 176.042C173.275 172.752 168.401 170.96 162.519 170.139C153.253 168.843 141.455 170.14 133.423 173.083C130.668 174.09 128.369 175.284 126.812 176.651C125.529 177.78 124.77 179.001 124.932 180.358C125.08 181.641 125.823 182.616 126.951 183.366C128.275 184.248 130.093 184.823 132.227 185.184C142.846 186.974 160.937 183.3 168.39 179.701C170.704 178.582 173.023 177.422 175.338 176.215Z" fill="#10797F"/>
<path fill-rule="evenodd" clip-rule="evenodd" d="M249.515 91.3624C249.883 91.7453 250.216 92.4171 250.565 93.1441C251.399 94.8748 252.092 97.003 252.46 97.9911C252.698 98.6264 253.406 98.9243 254.039 98.6629C254.674 98.3988 254.996 97.6724 254.758 97.0371C254.306 95.8273 253.376 92.993 252.307 91.0817C251.732 90.0569 251.082 89.285 250.472 88.941C249.434 88.3533 248.27 88.7419 247.215 90.3674C245.969 92.291 244.486 96.4294 241.381 98.6242C240.817 99.0212 240.663 99.8018 241.037 100.357C241.411 100.917 242.171 101.047 242.737 100.647C245.696 98.553 247.424 94.9381 248.715 92.5923C248.961 92.1468 249.306 91.6525 249.515 91.3624Z" fill="#10797F"/>
</g>
<defs>
<clipPath id="clip0_3_48">
<rect width="213.333" height="205.361" fill="white" transform="translate(0.582458 176.431) rotate(-55.7118)"/>
</clipPath>
</defs>
</svg>
